<svg width="71" height="62" viewBox="0 0 71 62" fill="none" xmlns="http://www.w3.org/2000/svg">
<path d="M8.82617 54.25H61.7845" stroke="#ED1C24" stroke-width="2.75" stroke-linecap="round" stroke-linejoin="round"/>
<path d="M44.1317 20.6667C44.1317 22.7221 45.0616 24.6933 46.7169 26.1467C48.3722 27.6001 50.6172 28.4167 52.9581 28.4167C55.299 28.4167 57.5441 27.6001 59.1993 26.1467C60.8546 24.6933 61.7845 22.7221 61.7845 20.6667V18.0833H8.82617L14.7104 7.75H55.9002L61.7845 18.0833M8.82617 18.0833V20.6667C8.82617 22.7221 9.75609 24.6933 11.4114 26.1467C13.0666 27.6001 15.3117 28.4167 17.6526 28.4167C19.9935 28.4167 22.2385 27.6001 23.8938 26.1467C25.549 24.6933 26.479 22.7221 26.479 20.6667V18.0833H8.82617ZM26.479 20.6667C26.479 22.7221 27.4089 24.6933 29.0641 26.1467C30.7194 27.6001 32.9644 28.4167 35.3053 28.4167C37.6462 28.4167 39.8913 27.6001 41.5465 26.1467C43.2018 24.6933 44.1317 22.7221 44.1317 20.6667V18.0833L26.479 20.6667Z" stroke="#ED1C24" stroke-width="2.75" stroke-linecap="round" stroke-linejoin="round"/>
<path d="M14.7109 54.2501V28.0293" stroke="#ED1C24" stroke-width="2.75" stroke-linecap="round" stroke-linejoin="round"/>
<path d="M55.9004 54.2501V28.0293" stroke="#ED1C24" stroke-width="2.75" stroke-linecap="round" stroke-linejoin="round"/>
<path d="M26.4795 54.2502V43.9169C26.4795 42.5466 27.0994 41.2325 28.203 40.2635C29.3065 39.2946 30.8031 38.7502 32.3638 38.7502H38.248C39.8086 38.7502 41.3053 39.2946 42.4088 40.2635C43.5123 41.2325 44.1323 42.5466 44.1323 43.9169V54.2502" stroke="#ED1C24" stroke-width="2.75" stroke-linecap="round" stroke-linejoin="round"/>
</svg>
